<?xml version="1.0" standalone="no"?><!DOCTYPE svg PUBLIC "-//W3C//DTD SVG 1.1//EN" "http://www.w3.org/Graphics/SVG/1.1/DTD/svg11.dtd"><svg class="icon" width="200px" height="200.00px" viewBox="0 0 1024 1024" version="1.1" xmlns="http://www.w3.org/2000/svg"><path fill="currentColor" d="M933.512 219.92h-190.974l-35.036-70.07C695.2 125.244 670.468 109.96 642.96 109.96H381.04c-27.508 0-52.24 15.284-64.542 39.89l-35.036 70.07h-63.834v-19.472c0-29.684-24.15-53.834-53.834-53.834H127.14c-29.684 0-53.834 24.15-53.834 53.834v21.128C31.602 229.628 0 266.386 0 310.408v513.146c0 49.894 40.594 90.488 90.488 90.488h843.024c49.894 0 90.488-40.594 90.488-90.488V310.408c0-49.896-40.594-90.488-90.488-90.488z m-825.844-19.472c0-10.738 8.734-19.472 19.472-19.472h36.654c10.738 0 19.472 8.734 19.472 19.472v19.472H107.668v-19.472z m881.97 623.104c0 30.946-25.178 56.126-56.126 56.126H90.488c-30.946 0-56.126-25.178-56.126-56.126V310.408c0-30.946 25.178-56.126 56.126-56.126h513.148a17.182 17.182 0 0 0 0-34.364H319.88l27.352-54.702c6.444-12.888 19.398-20.894 33.808-20.894h261.92c14.41 0 27.364 8.006 33.808 20.894l27.352 54.702h-27.174a17.182 17.182 0 0 0 0 34.364h256.566c30.946 0 56.126 25.178 56.126 56.126v513.144z"  /><path fill="currentColor" d="M512 311.552c-140.842 0-255.428 114.584-255.428 255.428S371.158 822.408 512 822.408s255.428-114.584 255.428-255.428S652.842 311.552 512 311.552z m0 476.492c-121.894 0-221.064-99.17-221.064-221.064S390.106 345.916 512 345.916s221.064 99.17 221.064 221.064S633.894 788.044 512 788.044z"  /><path fill="currentColor" d="M608.976 412.786c-34.368-21.656-75.664-31.212-116.276-26.906-41.23 4.37-80.11 22.952-109.48 52.322-29.37 29.37-47.952 68.25-52.322 109.48-4.304 40.614 5.25 81.906 26.906 116.276a17.166 17.166 0 0 0 14.554 8.024c3.13 0 6.3-0.856 9.142-2.648 8.026-5.058 10.438-15.666 5.376-23.694-17.556-27.868-25.3-61.372-21.806-94.338 3.596-33.922 18.276-64.628 42.448-88.804 24.172-24.176 54.884-38.852 88.804-42.448 32.97-3.492 66.47 4.25 94.336 21.806a17.18 17.18 0 0 0 18.318-29.07zM666.2 470c-5.062-8.024-15.672-10.434-23.698-5.374-8.026 5.058-10.438 15.666-5.376 23.694 17.556 27.866 25.3 61.37 21.806 94.336-3.596 33.922-18.276 64.628-42.45 88.804-24.172 24.176-54.884 38.852-88.804 42.45-32.972 3.486-66.472-4.25-94.336-21.806a17.18 17.18 0 0 0-18.318 29.07c28.976 18.258 62.876 27.916 97.142 27.916 6.376 0 12.764-0.334 19.136-1.01 41.23-4.37 80.11-22.952 109.48-52.322 29.37-29.37 47.952-68.25 52.322-109.48 4.306-40.616-5.248-81.908-26.904-116.278zM915.186 293.226h-91.634c-19.58 0-35.508 15.928-35.508 35.508v54.98c0 19.58 15.928 35.508 35.508 35.508h91.634c19.58 0 35.508-15.928 35.508-35.508v-54.98c0-19.58-15.928-35.508-35.508-35.508z m1.146 90.488a1.148 1.148 0 0 1-1.146 1.146h-91.634a1.148 1.148 0 0 1-1.146-1.146v-54.98c0-0.632 0.514-1.146 1.146-1.146h91.634c0.632 0 1.146 0.514 1.146 1.146v54.98z"  /><path fill="currentColor" d="M611.716 523.37a108.634 108.634 0 0 0-56.136-56.12 17.178 17.178 0 0 0-22.626 8.854 17.18 17.18 0 0 0 8.854 22.626 74.396 74.396 0 0 1 38.434 38.422 17.184 17.184 0 0 0 15.748 10.296 17.186 17.186 0 0 0 15.726-24.078zM482.194 635.23a74.4 74.4 0 0 1-38.436-38.422 17.182 17.182 0 0 0-31.476 13.78 108.652 108.652 0 0 0 56.138 56.12c2.242 0.98 4.58 1.446 6.878 1.446a17.186 17.186 0 0 0 15.75-10.3 17.18 17.18 0 0 0-8.854-22.624z"  /></svg>